<svg width="1200" height="900" viewBox="0 0 1200 900" fill="none" xmlns="http://www.w3.org/2000/svg">
  <rect width="1200" height="900" rx="48" fill="#F8FAFC"/>
  <circle cx="250" cy="240" r="120" fill="#C4B5FD"/>
  <circle cx="600" cy="200" r="92" fill="#8B5CF6"/>
  <circle cx="930" cy="260" r="132" fill="#DDD6FE"/>
  <path d="M140 560C250 440 420 420 520 520C640 640 820 640 940 520C1010 450 1060 440 1120 470" stroke="#7C3AED" stroke-width="26" stroke-linecap="round"/>
  <path d="M120 650C230 530 400 510 500 610C620 730 810 730 930 610C1000 540 1060 530 1100 550" stroke="#C084FC" stroke-width="18" stroke-linecap="round" opacity="0.8"/>
  <rect x="180" y="330" width="840" height="330" rx="42" fill="#FFFFFF" stroke="#DDD6FE" stroke-width="8"/>
  <rect x="250" y="400" width="180" height="180" rx="30" fill="#8B5CF6" opacity="0.16"/>
  <rect x="510" y="400" width="180" height="180" rx="30" fill="#A78BFA" opacity="0.2"/>
  <rect x="770" y="400" width="180" height="180" rx="30" fill="#C4B5FD" opacity="0.28"/>
</svg>
