<svg width="1200" height="900" viewBox="0 0 1200 900" fill="none" xmlns="http://www.w3.org/2000/svg">
  <rect width="1200" height="900" rx="48" fill="#F5F3FF"/>
  <rect x="80" y="90" width="1040" height="720" rx="40" fill="#FFFFFF" stroke="#D8B4FE" stroke-width="8"/>
  <rect x="150" y="170" width="420" height="500" rx="28" fill="#EDE9FE"/>
  <rect x="205" y="230" width="310" height="26" rx="13" fill="#8B5CF6"/>
  <rect x="205" y="288" width="240" height="20" rx="10" fill="#C4B5FD"/>
  <rect x="205" y="330" width="280" height="20" rx="10" fill="#DDD6FE"/>
  <rect x="205" y="372" width="200" height="20" rx="10" fill="#DDD6FE"/>
  <rect x="205" y="430" width="170" height="90" rx="22" fill="#FFFFFF" stroke="#A78BFA" stroke-width="6"/>
  <rect x="400" y="430" width="90" height="90" rx="22" fill="#8B5CF6"/>
  <rect x="640" y="180" width="380" height="220" rx="30" fill="#8B5CF6"/>
  <path d="M720 270H940" stroke="#FFFFFF" stroke-width="20" stroke-linecap="round"/>
  <path d="M720 320H880" stroke="#DDD6FE" stroke-width="18" stroke-linecap="round"/>
  <rect x="640" y="450" width="180" height="170" rx="28" fill="#DDD6FE"/>
  <rect x="850" y="450" width="170" height="170" rx="28" fill="#EDE9FE" stroke="#A78BFA" stroke-width="6"/>
  <circle cx="1030" cy="140" r="42" fill="#C084FC" opacity="0.4"/>
  <circle cx="160" cy="760" r="54" fill="#A78BFA" opacity="0.3"/>
</svg>
